<svg width="112" height="16" viewBox="0 0 112 16" fill="none" xmlns="http://www.w3.org/2000/svg">
<g clip-path="url(#clip0_4411_16527)">
<path fill-rule="evenodd" clip-rule="evenodd" d="M7.77281 0.359157C8.2254 0.253554 8.69109 0.473677 8.89677 0.890432L10.7243 4.59342L14.8116 5.1905C15.1882 5.24551 15.5009 5.50952 15.6183 5.87155C15.7357 6.23358 15.6374 6.63086 15.3647 6.89639L12.4076 9.77637L13.1056 13.8449C13.17 14.2201 13.0158 14.5993 12.7078 14.8231C12.3998 15.0468 11.9915 15.0763 11.6545 14.899L8.00004 12.9769L4.34554 14.899C4.00862 15.0763 3.6003 15.0468 3.2923 14.8231C2.98431 14.5993 2.83006 14.2201 2.89444 13.8449L3.59248 9.77637L0.635339 6.89639C0.362691 6.63086 0.264405 6.23358 0.381796 5.87155C0.499187 5.50952 0.811901 5.24551 1.18849 5.1905L5.27582 4.59342L7.08953 0.919331C7.21496 0.643553 7.46283 0.431486 7.77281 0.359157ZM8.00018 3.59283L6.83673 5.94965C6.69117 6.24451 6.40996 6.44897 6.08459 6.4965L3.48172 6.87673L5.36473 8.71061C5.60065 8.94036 5.70832 9.27154 5.65264 9.5961L5.20838 12.1854L7.53453 10.962C7.82594 10.8087 8.17413 10.8087 8.46554 10.962L10.7917 12.1854L10.3474 9.5961C10.2918 9.27154 10.3994 8.94036 10.6353 8.71061L12.5184 6.87673L9.91549 6.4965C9.59008 6.44896 9.30885 6.24447 9.1633 5.94957L8.00018 3.59283Z" fill="#FF8A00"/>
<path d="M6.83673 5.94965L8.00018 3.59283L9.1633 5.94957C9.30885 6.24447 9.59008 6.44896 9.91549 6.4965L12.5184 6.87673L10.6353 8.71061C10.3994 8.94036 10.2918 9.27154 10.3474 9.5961L10.7917 12.1854L8.46554 10.962C8.17413 10.8087 7.82594 10.8087 7.53453 10.962L5.20838 12.1854L5.65264 9.5961C5.70832 9.27154 5.60065 8.94036 5.36473 8.71061L3.48172 6.87673L6.08459 6.4965C6.40996 6.44897 6.69117 6.24451 6.83673 5.94965Z" fill="#FF8A00"/>
</g>
<g clip-path="url(#clip1_4411_16527)">
<path fill-rule="evenodd" clip-rule="evenodd" d="M31.7728 0.359157C32.2254 0.253554 32.6911 0.473677 32.8968 0.890432L34.7243 4.59342L38.8116 5.1905C39.1882 5.24551 39.5009 5.50952 39.6183 5.87155C39.7357 6.23358 39.6374 6.63086 39.3647 6.89639L36.4076 9.77637L37.1056 13.8449C37.17 14.2201 37.0158 14.5993 36.7078 14.8231C36.3998 15.0468 35.9915 15.0763 35.6545 14.899L32 12.9769L28.3455 14.899C28.0086 15.0763 27.6003 15.0468 27.2923 14.8231C26.9843 14.5993 26.8301 14.2201 26.8944 13.8449L27.5925 9.77637L24.6353 6.89639C24.3627 6.63086 24.2644 6.23358 24.3818 5.87155C24.4992 5.50952 24.8119 5.24551 25.1885 5.1905L29.2758 4.59342L31.0895 0.919331C31.215 0.643553 31.4628 0.431486 31.7728 0.359157ZM32.0002 3.59283L30.8367 5.94965C30.6912 6.24451 30.41 6.44897 30.0846 6.4965L27.4817 6.87673L29.3647 8.71061C29.6006 8.94036 29.7083 9.27154 29.6526 9.5961L29.2084 12.1854L31.5345 10.962C31.8259 10.8087 32.1741 10.8087 32.4655 10.962L34.7917 12.1854L34.3474 9.5961C34.2918 9.27154 34.3994 8.94036 34.6353 8.71061L36.5184 6.87673L33.9155 6.4965C33.5901 6.44896 33.3088 6.24447 33.1633 5.94957L32.0002 3.59283Z" fill="#FF8A00"/>
<path d="M30.8367 5.94965L32.0002 3.59283L33.1633 5.94957C33.3088 6.24447 33.5901 6.44896 33.9155 6.4965L36.5184 6.87673L34.6353 8.71061C34.3994 8.94036 34.2918 9.27154 34.3474 9.5961L34.7917 12.1854L32.4655 10.962C32.1741 10.8087 31.8259 10.8087 31.5345 10.962L29.2084 12.1854L29.6526 9.5961C29.7083 9.27154 29.6006 8.94036 29.3647 8.71061L27.4817 6.87673L30.0846 6.4965C30.41 6.44897 30.6912 6.24451 30.8367 5.94965Z" fill="#FF8A00"/>
</g>
<g clip-path="url(#clip2_4411_16527)">
<path fill-rule="evenodd" clip-rule="evenodd" d="M55.7728 0.359157C56.2254 0.253554 56.6911 0.473677 56.8968 0.890432L58.7243 4.59342L62.8116 5.1905C63.1882 5.24551 63.5009 5.50952 63.6183 5.87155C63.7357 6.23358 63.6374 6.63086 63.3647 6.89639L60.4076 9.77637L61.1056 13.8449C61.17 14.2201 61.0158 14.5993 60.7078 14.8231C60.3998 15.0468 59.9915 15.0763 59.6545 14.899L56 12.9769L52.3455 14.899C52.0086 15.0763 51.6003 15.0468 51.2923 14.8231C50.9843 14.5993 50.8301 14.2201 50.8944 13.8449L51.5925 9.77637L48.6353 6.89639C48.3627 6.63086 48.2644 6.23358 48.3818 5.87155C48.4992 5.50952 48.8119 5.24551 49.1885 5.1905L53.2758 4.59342L55.0895 0.919331C55.215 0.643553 55.4628 0.431486 55.7728 0.359157ZM56.0002 3.59283L54.8367 5.94965C54.6912 6.24451 54.41 6.44897 54.0846 6.4965L51.4817 6.87673L53.3647 8.71061C53.6006 8.94036 53.7083 9.27154 53.6526 9.5961L53.2084 12.1854L55.5345 10.962C55.8259 10.8087 56.1741 10.8087 56.4655 10.962L58.7917 12.1854L58.3474 9.5961C58.2918 9.27154 58.3994 8.94036 58.6353 8.71061L60.5184 6.87673L57.9155 6.4965C57.5901 6.44896 57.3088 6.24447 57.1633 5.94957L56.0002 3.59283Z" fill="#FF8A00"/>
<path d="M54.8367 5.94965L56.0002 3.59283L57.1633 5.94957C57.3088 6.24447 57.5901 6.44896 57.9155 6.4965L60.5184 6.87673L58.6353 8.71061C58.3994 8.94036 58.2918 9.27154 58.3474 9.5961L58.7917 12.1854L56.4655 10.962C56.1741 10.8087 55.8259 10.8087 55.5345 10.962L53.2084 12.1854L53.6526 9.5961C53.7083 9.27154 53.6006 8.94036 53.3647 8.71061L51.4817 6.87673L54.0846 6.4965C54.41 6.44897 54.6912 6.24451 54.8367 5.94965Z" fill="#FF8A00"/>
</g>
<g clip-path="url(#clip3_4411_16527)">
<path fill-rule="evenodd" clip-rule="evenodd" d="M79.7728 0.359157C80.2254 0.253554 80.6911 0.473677 80.8968 0.890432L82.7243 4.59342L86.8116 5.1905C87.1882 5.24551 87.5009 5.50952 87.6183 5.87155C87.7357 6.23358 87.6374 6.63086 87.3647 6.89639L84.4076 9.77637L85.1056 13.8449C85.17 14.2201 85.0158 14.5993 84.7078 14.8231C84.3998 15.0468 83.9915 15.0763 83.6545 14.899L80 12.9769L76.3455 14.899C76.0086 15.0763 75.6003 15.0468 75.2923 14.8231C74.9843 14.5993 74.8301 14.2201 74.8944 13.8449L75.5925 9.77637L72.6353 6.89639C72.3627 6.63086 72.2644 6.23358 72.3818 5.87155C72.4992 5.50952 72.8119 5.24551 73.1885 5.1905L77.2758 4.59342L79.0895 0.919331C79.215 0.643553 79.4628 0.431486 79.7728 0.359157ZM80.0002 3.59283L78.8367 5.94965C78.6912 6.24451 78.41 6.44897 78.0846 6.4965L75.4817 6.87673L77.3647 8.71061C77.6006 8.94036 77.7083 9.27154 77.6526 9.5961L77.2084 12.1854L79.5345 10.962C79.8259 10.8087 80.1741 10.8087 80.4655 10.962L82.7917 12.1854L82.3474 9.5961C82.2918 9.27154 82.3994 8.94036 82.6353 8.71061L84.5184 6.87673L81.9155 6.4965C81.5901 6.44896 81.3088 6.24447 81.1633 5.94957L80.0002 3.59283Z" fill="#929DAA"/>
<path d="M78.8367 5.94965L80.0002 3.59283L81.1633 5.94957C81.3088 6.24447 81.5901 6.44896 81.9155 6.4965L84.5184 6.87673L82.6353 8.71061C82.3994 8.94036 82.2918 9.27154 82.3474 9.5961L82.7917 12.1854L80.4655 10.962C80.1741 10.8087 79.8259 10.8087 79.5345 10.962L77.2084 12.1854L77.6526 9.5961C77.7083 9.27154 77.6006 8.94036 77.3647 8.71061L75.4817 6.87673L78.0846 6.4965C78.41 6.44897 78.6912 6.24451 78.8367 5.94965Z" fill="#929DAA"/>
</g>
<g clip-path="url(#clip4_4411_16527)">
<path fill-rule="evenodd" clip-rule="evenodd" d="M103.773 0.359157C104.225 0.253554 104.691 0.473677 104.897 0.890432L106.724 4.59342L110.812 5.1905C111.188 5.24551 111.501 5.50952 111.618 5.87155C111.736 6.23358 111.637 6.63086 111.365 6.89639L108.408 9.77637L109.106 13.8449C109.17 14.2201 109.016 14.5993 108.708 14.8231C108.4 15.0468 107.991 15.0763 107.655 14.899L104 12.9769L100.346 14.899C100.009 15.0763 99.6003 15.0468 99.2923 14.8231C98.9843 14.5993 98.8301 14.2201 98.8944 13.8449L99.5925 9.77637L96.6353 6.89639C96.3627 6.63086 96.2644 6.23358 96.3818 5.87155C96.4992 5.50952 96.8119 5.24551 97.1885 5.1905L101.276 4.59342L103.09 0.919331C103.215 0.643553 103.463 0.431486 103.773 0.359157ZM104 3.59283L102.837 5.94965C102.691 6.24451 102.41 6.44897 102.085 6.4965L99.4817 6.87673L101.365 8.71061C101.601 8.94036 101.708 9.27154 101.653 9.5961L101.208 12.1854L103.535 10.962C103.826 10.8087 104.174 10.8087 104.466 10.962L106.792 12.1854L106.347 9.5961C106.292 9.27154 106.399 8.94036 106.635 8.71061L108.518 6.87673L105.915 6.4965C105.59 6.44896 105.309 6.24447 105.163 5.94957L104 3.59283Z" fill="#929DAA"/>
<path d="M102.837 5.94965L104 3.59283L105.163 5.94957C105.309 6.24447 105.59 6.44896 105.915 6.4965L108.518 6.87673L106.635 8.71061C106.399 8.94036 106.292 9.27154 106.347 9.5961L106.792 12.1854L104.466 10.962C104.174 10.8087 103.826 10.8087 103.535 10.962L101.208 12.1854L101.653 9.5961C101.708 9.27154 101.601 8.94036 101.365 8.71061L99.4817 6.87673L102.085 6.4965C102.41 6.44897 102.691 6.24451 102.837 5.94965Z" fill="#929DAA"/>
</g>
<defs>
<clipPath id="clip0_4411_16527">
<rect width="16" height="16" fill="white"/>
</clipPath>
<clipPath id="clip1_4411_16527">
<rect width="16" height="16" fill="white" transform="translate(24)"/>
</clipPath>
<clipPath id="clip2_4411_16527">
<rect width="16" height="16" fill="white" transform="translate(48)"/>
</clipPath>
<clipPath id="clip3_4411_16527">
<rect width="16" height="16" fill="white" transform="translate(72)"/>
</clipPath>
<clipPath id="clip4_4411_16527">
<rect width="16" height="16" fill="white" transform="translate(96)"/>
</clipPath>
</defs>
</svg>
