<svg width="112" height="16" viewBox="0 0 112 16" fill="none" xmlns="http://www.w3.org/2000/svg">
<g clip-path="url(#clip0_4411_16956)">
<path fill-rule="evenodd" clip-rule="evenodd" d="M7.77281 0.359142C8.2254 0.253539 8.69109 0.473662 8.89677 0.890417L10.7243 4.59341L14.8116 5.19049C15.1882 5.2455 15.5009 5.50951 15.6183 5.87154C15.7357 6.23356 15.6374 6.63084 15.3647 6.89638L12.4076 9.77635L13.1056 13.8449C13.17 14.2201 13.0158 14.5993 12.7078 14.823C12.3998 15.0468 11.9915 15.0762 11.6545 14.899L8.00004 12.9769L4.34554 14.899C4.00862 15.0762 3.6003 15.0468 3.2923 14.823C2.98431 14.5993 2.83006 14.2201 2.89444 13.8449L3.59248 9.77635L0.635339 6.89638C0.362691 6.63084 0.264405 6.23356 0.381796 5.87154C0.499187 5.50951 0.811901 5.2455 1.18849 5.19049L5.27582 4.5934L7.08953 0.919316C7.21496 0.643538 7.46283 0.431471 7.77281 0.359142ZM8.00018 3.59281L6.83673 5.94964C6.69117 6.24449 6.40996 6.44895 6.08459 6.49648L3.48172 6.87671L5.36473 8.71059C5.60065 8.94035 5.70832 9.27152 5.65264 9.59608L5.20838 12.1854L7.53453 10.9619C7.82594 10.8087 8.17413 10.8087 8.46554 10.9619L10.7917 12.1854L10.3474 9.59608C10.2918 9.27152 10.3994 8.94035 10.6353 8.71059L12.5184 6.87671L9.91549 6.49648C9.59008 6.44895 9.30885 6.24445 9.1633 5.94955L8.00018 3.59281Z" fill="#FF8A00"/>
<path d="M6.83673 5.94964L8.00018 3.59281L9.1633 5.94955C9.30885 6.24445 9.59008 6.44895 9.91549 6.49648L12.5184 6.87671L10.6353 8.71059C10.3994 8.94035 10.2918 9.27152 10.3474 9.59608L10.7917 12.1854L8.46554 10.9619C8.17413 10.8087 7.82594 10.8087 7.53453 10.9619L5.20838 12.1854L5.65264 9.59608C5.70832 9.27152 5.60065 8.94035 5.36473 8.71059L3.48172 6.87671L6.08459 6.49648C6.40996 6.44895 6.69117 6.24449 6.83673 5.94964Z" fill="#FF8A00"/>
</g>
<g clip-path="url(#clip1_4411_16956)">
<path fill-rule="evenodd" clip-rule="evenodd" d="M31.7728 0.359142C32.2254 0.253539 32.6911 0.473662 32.8968 0.890417L34.7243 4.59341L38.8116 5.19049C39.1882 5.2455 39.5009 5.50951 39.6183 5.87154C39.7357 6.23356 39.6374 6.63084 39.3647 6.89638L36.4076 9.77635L37.1056 13.8449C37.17 14.2201 37.0158 14.5993 36.7078 14.823C36.3998 15.0468 35.9915 15.0762 35.6545 14.899L32 12.9769L28.3455 14.899C28.0086 15.0762 27.6003 15.0468 27.2923 14.823C26.9843 14.5993 26.8301 14.2201 26.8944 13.8449L27.5925 9.77635L24.6353 6.89638C24.3627 6.63084 24.2644 6.23356 24.3818 5.87154C24.4992 5.50951 24.8119 5.2455 25.1885 5.19049L29.2758 4.5934L31.0895 0.919316C31.215 0.643538 31.4628 0.431471 31.7728 0.359142ZM32.0002 3.59281L30.8367 5.94964C30.6912 6.24449 30.41 6.44895 30.0846 6.49648L27.4817 6.87671L29.3647 8.71059C29.6006 8.94035 29.7083 9.27152 29.6526 9.59608L29.2084 12.1854L31.5345 10.9619C31.8259 10.8087 32.1741 10.8087 32.4655 10.9619L34.7917 12.1854L34.3474 9.59608C34.2918 9.27152 34.3994 8.94035 34.6353 8.71059L36.5184 6.87671L33.9155 6.49648C33.5901 6.44895 33.3088 6.24445 33.1633 5.94955L32.0002 3.59281Z" fill="#FF8A00"/>
<path d="M30.8367 5.94964L32.0002 3.59281L33.1633 5.94955C33.3088 6.24445 33.5901 6.44895 33.9155 6.49648L36.5184 6.87671L34.6353 8.71059C34.3994 8.94035 34.2918 9.27152 34.3474 9.59608L34.7917 12.1854L32.4655 10.9619C32.1741 10.8087 31.8259 10.8087 31.5345 10.9619L29.2084 12.1854L29.6526 9.59608C29.7083 9.27152 29.6006 8.94035 29.3647 8.71059L27.4817 6.87671L30.0846 6.49648C30.41 6.44895 30.6912 6.24449 30.8367 5.94964Z" fill="#FF8A00"/>
</g>
<g clip-path="url(#clip2_4411_16956)">
<path fill-rule="evenodd" clip-rule="evenodd" d="M55.7728 0.359142C56.2254 0.253539 56.6911 0.473662 56.8968 0.890417L58.7243 4.59341L62.8116 5.19049C63.1882 5.2455 63.5009 5.50951 63.6183 5.87154C63.7357 6.23356 63.6374 6.63084 63.3647 6.89638L60.4076 9.77635L61.1056 13.8449C61.17 14.2201 61.0158 14.5993 60.7078 14.823C60.3998 15.0468 59.9915 15.0762 59.6545 14.899L56 12.9769L52.3455 14.899C52.0086 15.0762 51.6003 15.0468 51.2923 14.823C50.9843 14.5993 50.8301 14.2201 50.8944 13.8449L51.5925 9.77635L48.6353 6.89638C48.3627 6.63084 48.2644 6.23356 48.3818 5.87154C48.4992 5.50951 48.8119 5.2455 49.1885 5.19049L53.2758 4.5934L55.0895 0.919316C55.215 0.643538 55.4628 0.431471 55.7728 0.359142ZM56.0002 3.59281L54.8367 5.94964C54.6912 6.24449 54.41 6.44895 54.0846 6.49648L51.4817 6.87671L53.3647 8.71059C53.6006 8.94035 53.7083 9.27152 53.6526 9.59608L53.2084 12.1854L55.5345 10.9619C55.8259 10.8087 56.1741 10.8087 56.4655 10.9619L58.7917 12.1854L58.3474 9.59608C58.2918 9.27152 58.3994 8.94035 58.6353 8.71059L60.5184 6.87671L57.9155 6.49648C57.5901 6.44895 57.3088 6.24445 57.1633 5.94955L56.0002 3.59281Z" fill="#FF8A00"/>
<path d="M54.8367 5.94964L56.0002 3.59281L57.1633 5.94955C57.3088 6.24445 57.5901 6.44895 57.9155 6.49648L60.5184 6.87671L58.6353 8.71059C58.3994 8.94035 58.2918 9.27152 58.3474 9.59608L58.7917 12.1854L56.4655 10.9619C56.1741 10.8087 55.8259 10.8087 55.5345 10.9619L53.2084 12.1854L53.6526 9.59608C53.7083 9.27152 53.6006 8.94035 53.3647 8.71059L51.4817 6.87671L54.0846 6.49648C54.41 6.44895 54.6912 6.24449 54.8367 5.94964Z" fill="#FF8A00"/>
</g>
<g clip-path="url(#clip3_4411_16956)">
<path fill-rule="evenodd" clip-rule="evenodd" d="M79.7728 0.359142C80.2254 0.253539 80.6911 0.473662 80.8968 0.890417L82.7243 4.59341L86.8116 5.19049C87.1882 5.2455 87.5009 5.50951 87.6183 5.87154C87.7357 6.23356 87.6374 6.63084 87.3647 6.89638L84.4076 9.77635L85.1056 13.8449C85.17 14.2201 85.0158 14.5993 84.7078 14.823C84.3998 15.0468 83.9915 15.0762 83.6545 14.899L80 12.9769L76.3455 14.899C76.0086 15.0762 75.6003 15.0468 75.2923 14.823C74.9843 14.5993 74.8301 14.2201 74.8944 13.8449L75.5925 9.77635L72.6353 6.89638C72.3627 6.63084 72.2644 6.23356 72.3818 5.87154C72.4992 5.50951 72.8119 5.2455 73.1885 5.19049L77.2758 4.5934L79.0895 0.919316C79.215 0.643538 79.4628 0.431471 79.7728 0.359142ZM80.0002 3.59281L78.8367 5.94964C78.6912 6.24449 78.41 6.44895 78.0846 6.49648L75.4817 6.87671L77.3647 8.71059C77.6006 8.94035 77.7083 9.27152 77.6526 9.59608L77.2084 12.1854L79.5345 10.9619C79.8259 10.8087 80.1741 10.8087 80.4655 10.9619L82.7917 12.1854L82.3474 9.59608C82.2918 9.27152 82.3994 8.94035 82.6353 8.71059L84.5184 6.87671L81.9155 6.49648C81.5901 6.44895 81.3088 6.24445 81.1633 5.94955L80.0002 3.59281Z" fill="#FF8A00"/>
<path d="M78.8367 5.94964L80.0002 3.59281L81.1633 5.94955C81.3088 6.24445 81.5901 6.44895 81.9155 6.49648L84.5184 6.87671L82.6353 8.71059C82.3994 8.94035 82.2918 9.27152 82.3474 9.59608L82.7917 12.1854L80.4655 10.9619C80.1741 10.8087 79.8259 10.8087 79.5345 10.9619L77.2084 12.1854L77.6526 9.59608C77.7083 9.27152 77.6006 8.94035 77.3647 8.71059L75.4817 6.87671L78.0846 6.49648C78.41 6.44895 78.6912 6.24449 78.8367 5.94964Z" fill="#FF8A00"/>
</g>
<g clip-path="url(#clip4_4411_16956)">
<path fill-rule="evenodd" clip-rule="evenodd" d="M103.773 0.359142C104.225 0.253539 104.691 0.473662 104.897 0.890417L106.724 4.59341L110.812 5.19049C111.188 5.2455 111.501 5.50951 111.618 5.87154C111.736 6.23356 111.637 6.63084 111.365 6.89638L108.408 9.77635L109.106 13.8449C109.17 14.2201 109.016 14.5993 108.708 14.823C108.4 15.0468 107.991 15.0762 107.655 14.899L104 12.9769L100.346 14.899C100.009 15.0762 99.6003 15.0468 99.2923 14.823C98.9843 14.5993 98.8301 14.2201 98.8944 13.8449L99.5925 9.77635L96.6353 6.89638C96.3627 6.63084 96.2644 6.23356 96.3818 5.87154C96.4992 5.50951 96.8119 5.2455 97.1885 5.19049L101.276 4.5934L103.09 0.919316C103.215 0.643538 103.463 0.431471 103.773 0.359142ZM104 3.59281L102.837 5.94964C102.691 6.24449 102.41 6.44895 102.085 6.49648L99.4817 6.87671L101.365 8.71059C101.601 8.94035 101.708 9.27152 101.653 9.59608L101.208 12.1854L103.535 10.9619C103.826 10.8087 104.174 10.8087 104.466 10.9619L106.792 12.1854L106.347 9.59608C106.292 9.27152 106.399 8.94035 106.635 8.71059L108.518 6.87671L105.915 6.49648C105.59 6.44895 105.309 6.24445 105.163 5.94955L104 3.59281Z" fill="#FF8A00"/>
<path d="M102.837 5.94964L104 3.59281L105.163 5.94955C105.309 6.24445 105.59 6.44895 105.915 6.49648L108.518 6.87671L106.635 8.71059C106.399 8.94035 106.292 9.27152 106.347 9.59608L106.792 12.1854L104.466 10.9619C104.174 10.8087 103.826 10.8087 103.535 10.9619L101.208 12.1854L101.653 9.59608C101.708 9.27152 101.601 8.94035 101.365 8.71059L99.4817 6.87671L102.085 6.49648C102.41 6.44895 102.691 6.24449 102.837 5.94964Z" fill="#FF8A00"/>
</g>
<defs>
<clipPath id="clip0_4411_16956">
<rect width="16" height="16" fill="white"/>
</clipPath>
<clipPath id="clip1_4411_16956">
<rect width="16" height="16" fill="white" transform="translate(24)"/>
</clipPath>
<clipPath id="clip2_4411_16956">
<rect width="16" height="16" fill="white" transform="translate(48)"/>
</clipPath>
<clipPath id="clip3_4411_16956">
<rect width="16" height="16" fill="white" transform="translate(72)"/>
</clipPath>
<clipPath id="clip4_4411_16956">
<rect width="16" height="16" fill="white" transform="translate(96)"/>
</clipPath>
</defs>
</svg>
