<svg width="24" height="24" viewBox="0 0 24 24" fill="none" xmlns="http://www.w3.org/2000/svg">
<path fill-rule="evenodd" clip-rule="evenodd" d="M6.94864 3.11916C4.79447 3.49603 3.3519 4.66745 2.60047 6.25414C1.87107 7.79436 1.83926 9.62112 2.24437 11.3078C2.65097 13.0007 3.51996 14.6532 4.7282 15.8834C5.82322 16.9983 7.24352 17.8075 8.87239 17.9031L8.2696 19.3942C8.24035 19.4666 8.30159 19.543 8.37861 19.5303L9.50754 19.3438C10.3867 20.1646 10.5469 20.7537 10.804 22.0393C10.8257 22.1476 10.931 22.2178 11.0394 22.1962C11.1477 22.1745 11.2179 22.0691 11.1963 21.9608C10.941 20.6843 10.804 20.0704 10.0281 19.2579L10.772 19.135C10.849 19.1222 10.8824 19.0301 10.8314 18.971L9.82705 17.8072C10.5073 17.5613 11.099 17.1763 11.6054 16.6985C12.4675 17.7509 13.6127 18.5728 15.0148 18.9053L14.2022 20.2371C14.1615 20.3037 14.2095 20.3891 14.2876 20.3891L15.2756 20.3891C15.1875 21.0059 14.2942 21.4233 13.8588 21.8586C13.7807 21.9367 13.7807 22.0634 13.8588 22.1415C13.9369 22.2196 14.0635 22.2196 14.1416 22.1415C14.7031 21.58 15.5766 21.2451 15.6789 20.3891L16.7134 20.3891C16.7915 20.3891 16.8394 20.3036 16.7987 20.237L16.017 18.9572C17.6547 18.6801 18.9949 17.6412 19.9562 16.3447C20.9762 14.9691 21.6354 13.2243 21.8338 11.5004C22.0314 9.78416 21.7825 7.9806 20.8467 6.55954C19.8807 5.09253 18.2641 4.15987 16.0278 4.10558C14.5892 4.07066 13.3753 4.40914 12.4024 5.02808C11.0847 3.37323 9.00473 2.75945 6.94864 3.11916ZM6.1551 14.482C7.04476 15.3878 8.08809 15.9079 9.18441 15.9125C10.0795 15.5732 10.8317 14.7674 11.348 13.6055C11.8866 12.3933 12.1159 10.8972 11.9856 9.47691C11.8546 8.04811 11.3718 6.80722 10.6095 6.0124C9.88842 5.26059 8.83749 4.81909 7.2933 5.08924C5.7451 5.3601 4.86728 6.14041 4.40803 7.11016C3.92676 8.12639 3.85763 9.46079 4.18906 10.8407C4.51901 12.2144 5.22406 13.534 6.1551 14.482ZM13.3917 6.7652C13.7085 7.56601 13.898 8.43024 13.9773 9.29421C14.1564 11.2472 13.818 13.3128 12.8664 15.0417C13.5767 16.0717 14.5241 16.7763 15.6443 16.9934C16.649 16.8385 17.5882 16.1889 18.3515 15.1594C19.1465 14.0872 19.6856 12.6815 19.8467 11.2822C20.0087 9.87529 19.7784 8.5829 19.1742 7.66525C18.6002 6.79353 17.6161 6.1447 15.9686 6.10471C14.8665 6.07795 14.0264 6.33643 13.3917 6.7652Z" fill="#3ECDBA"/>
</svg>
