<svg width="35" height="35" viewBox="0 0 35 35" fill="none" xmlns="http://www.w3.org/2000/svg">
<rect width="35" height="35" rx="17.5" fill="#30BEAB"/>
<path fill-rule="evenodd" clip-rule="evenodd" d="M17.5 9.5C18.0523 9.5 18.5 9.94772 18.5 10.5V16.5H24.5C25.0523 16.5 25.5 16.9477 25.5 17.5C25.5 18.0523 25.0523 18.5 24.5 18.5H18.5V24.5C18.5 25.0523 18.0523 25.5 17.5 25.5C16.9477 25.5 16.5 25.0523 16.5 24.5V18.5H10.5C9.94772 18.5 9.5 18.0523 9.5 17.5C9.5 16.9477 9.94772 16.5 10.5 16.5H16.5V10.5C16.5 9.94772 16.9477 9.5 17.5 9.5Z" fill="#F7F7FB"/>
</svg>
