<svg width="24" height="24" viewBox="0 0 24 24" fill="none" xmlns="http://www.w3.org/2000/svg">
<path fill-rule="evenodd" clip-rule="evenodd" d="M6.94864 3.1191C4.79447 3.49597 3.3519 4.66739 2.60047 6.25408C1.87107 7.7943 1.83926 9.62106 2.24437 11.3077C2.65097 13.0006 3.51996 14.6531 4.7282 15.8833C5.82322 16.9982 7.24352 17.8074 8.87239 17.903L8.2696 19.3941C8.24035 19.4665 8.30159 19.543 8.37861 19.5303L9.50754 19.3438C10.3867 20.1645 10.5469 20.7536 10.804 22.0392C10.8257 22.1475 10.931 22.2178 11.0394 22.1961C11.1477 22.1744 11.2179 22.0691 11.1963 21.9608C10.941 20.6843 10.804 20.0704 10.0281 19.2578L10.772 19.1349C10.849 19.1222 10.8824 19.03 10.8314 18.9709L9.82705 17.8072C10.5073 17.5612 11.099 17.1763 11.6054 16.6984C12.4675 17.7508 13.6127 18.5728 15.0148 18.9052L14.2022 20.237C14.1615 20.3036 14.2095 20.3891 14.2876 20.3891L15.2756 20.3891C15.1875 21.0059 14.2942 21.4232 13.8588 21.8586C13.7807 21.9367 13.7807 22.0633 13.8588 22.1414C13.9369 22.2195 14.0635 22.2195 14.1416 22.1414C14.7031 21.58 15.5766 21.2451 15.6789 20.3891L16.7134 20.3891C16.7915 20.3891 16.8394 20.3036 16.7987 20.2369L16.017 18.9571C17.6547 18.68 18.9949 17.6411 19.9562 16.3446C20.9762 14.9691 21.6354 13.2243 21.8338 11.5004C22.0314 9.7841 21.7825 7.98054 20.8467 6.55947C19.8807 5.09246 18.2641 4.15981 16.0278 4.10552C14.5892 4.0706 13.3753 4.40908 12.4024 5.02802C11.0847 3.37317 9.00473 2.75939 6.94864 3.1191ZM6.1551 14.4819C7.04476 15.3877 8.08809 15.9078 9.18441 15.9124C10.0795 15.5731 10.8317 14.7673 11.348 13.6054C11.8866 12.3933 12.1159 10.8971 11.9856 9.47685C11.8546 8.04805 11.3718 6.80716 10.6095 6.01234C9.88842 5.26053 8.83749 4.81903 7.2933 5.08918C5.7451 5.36003 4.86728 6.14034 4.40803 7.1101C3.92676 8.12633 3.85763 9.46073 4.18906 10.8407C4.51901 12.2144 5.22406 13.5339 6.1551 14.4819ZM13.3917 6.76514C13.7085 7.56595 13.898 8.43017 13.9773 9.29415C14.1564 11.2471 13.818 13.3128 12.8664 15.0416C13.5767 16.0716 14.5241 16.7763 15.6443 16.9933C16.649 16.8384 17.5882 16.1888 18.3515 15.1593C19.1465 14.0872 19.6856 12.6815 19.8467 11.2822C20.0087 9.87523 19.7784 8.58284 19.1742 7.66518C18.6002 6.79347 17.6161 6.14464 15.9686 6.10465C14.8665 6.07789 14.0264 6.33637 13.3917 6.76514Z" fill="#929DAA"/>
</svg>
