<svg width="28" height="24" viewBox="0 0 28 24" fill="none" xmlns="http://www.w3.org/2000/svg">
<path fill-rule="evenodd" clip-rule="evenodd" d="M6.91679 1.5C7.46948 1.5 7.91753 1.94507 7.91753 2.49408V3.12958H17.7373V2.49408C17.7373 1.94507 18.1854 1.5 18.7381 1.5C19.2908 1.5 19.7388 1.94507 19.7388 2.49408V3.21166C21.5598 3.58487 22.9287 5.18659 22.9287 7.10591L22.9287 18.5237C22.9287 20.7197 21.1365 22.5 18.9257 22.5H6.93168C4.72089 22.5 2.9287 20.7197 2.9287 18.5237V7.10591C2.9287 5.25843 4.19709 3.70523 5.91604 3.25869V2.49408C5.91604 1.94507 6.36409 1.5 6.91679 1.5ZM6.90678 5.11789C5.81286 5.13114 4.93019 6.01613 4.93019 7.10591V18.5237C4.93019 19.6217 5.82629 20.5118 6.93168 20.5118H18.9257C20.0311 20.5118 20.9272 19.6217 20.9272 18.5237L20.9272 7.10591C20.9272 6.00788 20.0311 5.11774 18.9257 5.11774C15.63 5.11774 8.58611 5.09756 6.90678 5.11789ZM6.91679 8C6.91679 7.45098 7.36483 7.00592 7.91753 7.00592L17.925 7.01183C18.4777 7.01183 18.9257 7.4569 18.9257 8.00592C18.9257 8.55493 18.4777 9 17.925 9L7.91753 8.99408C7.36483 8.99408 6.91679 8.54902 6.91679 8Z" fill="#929DAA"/>
</svg>
