<svg width="21" height="22" viewBox="0 0 21 22" fill="none" xmlns="http://www.w3.org/2000/svg">
<path fill-rule="evenodd" clip-rule="evenodd" d="M4.91679 0.5C5.46948 0.5 5.91753 0.945066 5.91753 1.49408V2.12958H15.7373V1.49408C15.7373 0.945066 16.1854 0.5 16.7381 0.5C17.2908 0.5 17.7388 0.945066 17.7388 1.49408V2.21166C19.5598 2.58487 20.9287 4.18659 20.9287 6.10591L20.9287 17.5237C20.9287 19.7197 19.1365 21.5 16.9257 21.5H4.93168C2.72089 21.5 0.928699 19.7197 0.928699 17.5237V6.10591C0.928699 4.25843 2.19709 2.70523 3.91604 2.25869V1.49408C3.91604 0.945066 4.36409 0.5 4.91679 0.5ZM4.90678 4.11789C3.81286 4.13114 2.93019 5.01613 2.93019 6.10591V17.5237C2.93019 18.6217 3.82629 19.5118 4.93168 19.5118H16.9257C18.0311 19.5118 18.9272 18.6217 18.9272 17.5237L18.9272 6.10591C18.9272 5.00788 18.0311 4.11774 16.9257 4.11774C13.63 4.11774 6.58611 4.09756 4.90678 4.11789ZM4.91679 7C4.91679 6.45098 5.36483 6.00592 5.91753 6.00592L15.925 6.01183C16.4777 6.01183 16.9257 6.4569 16.9257 7.00592C16.9257 7.55493 16.4777 8 15.925 8L5.91753 7.99408C5.36483 7.99408 4.91679 7.54902 4.91679 7Z" fill="#929DAA"/>
</svg>
