<svg width="16" height="16" viewBox="0 0 16 16" fill="none" xmlns="http://www.w3.org/2000/svg">
<g clip-path="url(#clip0_4592_1091)">
<path fill-rule="evenodd" clip-rule="evenodd" d="M6.26074 2.53441C6.18283 2.61121 6.143 2.71053 6.143 2.81V3H9.858V2.81C9.858 2.71024 9.81794 2.61063 9.73958 2.53374C9.66147 2.45708 9.55017 2.41 9.43 2.41H6.571C6.45279 2.41 6.34054 2.45674 6.26074 2.53441ZM11.858 3V2.81C11.858 2.16776 11.5981 1.55538 11.1404 1.10627C10.6825 0.656927 10.0658 0.410004 9.43 0.410004H6.571C5.93354 0.410004 5.3181 0.658997 4.86194 1.10494L4.86058 1.10627C4.40294 1.55538 4.143 2.16776 4.143 2.81V3H2C1.44772 3 1 3.44772 1 4C1 4.55229 1.44772 5 2 5V13.6015C2.00045 13.9192 2.06433 14.2336 2.1879 14.5262C2.3111 14.818 2.49118 15.0824 2.71761 15.3039C3.17358 15.7513 3.78888 16.0001 4.428 16.0001H11.572C12.2095 16.0001 12.8249 15.7511 13.2811 15.3052L13.2824 15.3038C13.7401 14.8547 14 14.2423 14 13.6001V5C14.5523 5 15 4.55229 15 4C15 3.44772 14.5523 3 14 3H11.858ZM12 5H4V13.5992C4.00013 13.6504 4.01047 13.7011 4.0304 13.7483C4.05039 13.7956 4.07963 13.8385 4.11641 13.8744L4.11839 13.8763C4.19642 13.9529 4.30712 14.0001 4.428 14.0001H11.572C11.6902 14.0001 11.8024 13.9534 11.8822 13.8757C11.9602 13.7989 12 13.6996 12 13.6001V5Z" fill="#F7F7FB"/>
</g>
<defs>
<clipPath id="clip0_4592_1091">
<rect width="16" height="16" fill="white"/>
</clipPath>
</defs>
</svg>
