<svg width="28" height="24" viewBox="0 0 28 24" fill="none" xmlns="http://www.w3.org/2000/svg">
<path d="M9.9264 14.6235C9.91245 14.403 10.0931 14.2237 10.3141 14.2237H12.1527C12.3736 14.2237 12.5492 14.4033 12.5709 14.6231C12.6198 15.119 12.7784 15.5819 13.1788 15.8976C13.6022 16.2265 14.1896 16.391 14.9409 16.391C15.6922 16.391 16.2677 16.2362 16.6672 15.9266C17.0667 15.6105 17.2665 15.188 17.2665 14.6591C17.2665 14.1559 17.1025 13.7367 16.7745 13.4013C16.4466 13.0658 15.5909 12.7465 14.2074 12.4434C12.7584 12.1208 11.7149 11.6209 11.0769 10.9437C10.4448 10.2599 10.1287 9.36653 10.1287 8.26352C10.1287 7.08955 10.5521 6.14456 11.3989 5.42857C12.2516 4.70613 13.4024 4.34491 14.8515 4.34491C16.3184 4.34491 17.4871 4.72225 18.3577 5.47695C19.1605 6.16693 19.5684 7.07874 19.6487 8.13469C19.6655 8.35497 19.4845 8.53443 19.2636 8.53443H17.4429C17.222 8.53443 17.0468 8.35458 17.02 8.1353C16.9676 7.706 16.8178 7.31262 16.4972 7.00569C16.1335 6.65737 15.5909 6.48321 14.8693 6.48321C14.1538 6.48321 13.626 6.62189 13.2862 6.89926C12.9522 7.17018 12.7853 7.56365 12.7853 8.07968C12.7853 8.53121 12.9403 8.90856 13.2504 9.21172C13.5664 9.50844 14.4221 9.80839 15.8175 10.1116C17.2426 10.4276 18.2802 10.9404 18.9302 11.65C19.5861 12.3595 19.9141 13.2948 19.9141 14.4559C19.9141 15.6879 19.4639 16.6716 18.5634 17.4069C17.663 18.1423 16.4615 18.51 14.9588 18.51C13.4501 18.51 12.2307 18.1584 11.3005 17.4553C10.3907 16.7632 9.99818 15.758 9.9264 14.6235ZM14.2586 20C14.0377 20 13.8586 19.8209 13.8586 19.6V18.2699H16.0947V19.6C16.0947 19.8209 15.9157 20 15.6947 20H14.2586ZM13.7692 4.52874V3.4C13.7692 3.17909 13.9482 3 14.1692 3H15.6053C15.8262 3 16.0053 3.17909 16.0053 3.4V4.52874H13.7692Z" fill="#929DAA"/>
</svg>
