<svg width="16" height="16" viewBox="0 0 16 16" fill="none" xmlns="http://www.w3.org/2000/svg">
<g clip-path="url(#clip0_4592_1087)">
<path fill-rule="evenodd" clip-rule="evenodd" d="M13.0072 2.51159C12.8452 2.44456 12.6671 2.42717 12.4952 2.46162C12.3234 2.49607 12.1657 2.58081 12.0422 2.70508L12.0401 2.70711L3.22793 11.5193L2.75819 13.2418L4.48072 12.7721L13.2929 3.9599L13.2931 3.95973C13.4595 3.79345 13.553 3.56789 13.553 3.33268L13.553 3.33054C13.5535 3.15531 13.5018 2.98389 13.4046 2.83807C13.3074 2.69226 13.1691 2.57862 13.0072 2.51159ZM12.1021 0.500651C12.6626 0.388254 13.2439 0.444998 13.7722 0.663675C14.3004 0.882352 14.7517 1.25309 15.0688 1.72881C15.3857 2.20423 15.5542 2.76306 15.553 3.3344C15.5525 4.0996 15.2482 4.83331 14.707 5.37428L5.70714 14.3741C5.58408 14.4972 5.43103 14.586 5.26313 14.6318L1.59613 15.6318C1.24992 15.7262 0.879668 15.6279 0.625924 15.3741C0.37218 15.1204 0.27385 14.7501 0.368261 14.4039L1.36826 10.7369C1.41405 10.569 1.50286 10.416 1.62592 10.2929L10.6239 1.29493C10.6243 1.29454 10.6247 1.29416 10.6251 1.29377C11.028 0.888986 11.542 0.61294 12.1021 0.500651ZM15.553 3.3344C15.553 3.33476 15.553 3.33511 15.553 3.33547L14.553 3.33301L15.553 3.33334C15.553 3.33369 15.553 3.33405 15.553 3.3344Z" fill="#F7F7FB"/>
</g>
<defs>
<clipPath id="clip0_4592_1087">
<rect width="16" height="16" fill="white"/>
</clipPath>
</defs>
</svg>
