<svg width="24" height="24" viewBox="0 0 24 24" fill="none" xmlns="http://www.w3.org/2000/svg">
<path fill-rule="evenodd" clip-rule="evenodd" d="M12.0185 4.54027C12.4721 3.65478 13.3266 3.05106 14.3108 3.03629C16.0187 3.01065 17.1381 4.70664 16.9824 6.29186L20.9948 6.28349C21.5471 6.28233 21.9958 6.72911 21.9969 7.2814L22.0023 9.85387C22.0025 9.96433 21.9132 10.0541 21.8027 10.0543L20.9998 10.056V20C20.9998 20.5523 20.5521 21 19.9998 21H3.99979C3.4475 21 2.99979 20.5523 2.99979 20V10.0935L2.26731 10.0951C2.15686 10.0953 2.06713 10.0059 2.0669 9.89549L2.06153 7.32301C2.06037 6.77073 2.50715 6.32208 3.05944 6.32093L7.04836 6.3126C6.90679 4.74765 7.99136 3.06646 9.67229 3.04122C10.6777 3.02613 11.558 3.6326 12.0185 4.54027ZM13.7127 6.29869L14.9591 6.29609C15.0766 5.84509 14.907 5.02752 14.3275 5.03622C13.7555 5.0448 13.5941 5.8497 13.7127 6.29869ZM10.3232 6.30576L9.07181 6.30838C8.96003 5.86021 9.11803 5.04972 9.68896 5.04115C10.2673 5.03247 10.4338 5.85561 10.3232 6.30576ZM10.9998 10.0768L4.99978 10.0894V19H10.9998V10.0768ZM12.9998 10.0727V19H18.9998V10.0601L12.9998 10.0727Z" fill="#929DAA"/>
</svg>
