<svg width="25" height="24" viewBox="0 0 25 24" fill="none" xmlns="http://www.w3.org/2000/svg">
<path d="M20.4918 4C20.4918 4.55228 20.0423 5 19.4877 5C18.9332 5 18.4836 4.55228 18.4836 4C18.4836 3.44772 18.9332 3 19.4877 3C20.0423 3 20.4918 3.44772 20.4918 4Z" fill="#929DAA"/>
<path d="M15.4714 4.5C15.7487 4.5 15.9734 4.72386 15.9734 5V10C15.9734 10.2761 15.7487 10.5 15.4714 10.5C15.1941 10.5 14.9693 10.2761 14.9693 10V5C14.9693 4.72386 15.1941 4.5 15.4714 4.5Z" fill="#929DAA"/>
<path d="M21.2714 6.55279C21.5194 6.42929 21.821 6.5294 21.945 6.77639C22.069 7.02338 21.9684 7.32372 21.7204 7.44721C21.288 7.66253 20.7048 8.11995 20.1565 8.66605C19.6082 9.21215 19.1489 9.79297 18.9327 10.2236C18.8087 10.4706 18.5071 10.5707 18.2591 10.4472C18.0111 10.3237 17.9106 10.0234 18.0346 9.77639C18.3204 9.20703 18.8652 8.53785 19.4465 7.95895C20.0278 7.38005 20.6997 6.83747 21.2714 6.55279Z" fill="#929DAA"/>
<path fill-rule="evenodd" clip-rule="evenodd" d="M11.7775 8.49534C11.8292 8.39662 11.7902 8.27466 11.6909 8.2242L9.54323 7.1335C9.0516 6.87799 8.44508 7.06778 8.18852 7.5574L6.97124 9.88054C5.99621 9.41919 4.86706 9.7293 4.42576 10.5905C4.16803 11.0935 4.20081 11.6754 4.46136 12.1752C3.92516 12.2688 3.4698 12.5611 3.2334 13.0224C2.8294 13.8108 3.20224 14.8252 4.06696 15.4233L2.61412 18.1959C2.35757 18.6856 2.54813 19.2896 3.03976 19.5451L5.19194 20.6381C5.28954 20.6877 5.40885 20.6496 5.45966 20.5526L8.49591 14.7581V20C8.49591 20.5523 8.94546 21 9.5 21H21.4959C22.0505 21 22.5 20.5523 22.5 20V12.2C22.5 12.0895 22.4105 12 22.3 12H9.94108L11.7775 8.49534ZM5.23565 13.1929L4.53582 14.5285C4.05413 14.1475 4.03059 13.6666 4.12776 13.4769C4.22568 13.2859 4.6359 13.0201 5.23565 13.1929ZM5.32012 11.0451C5.46518 10.762 5.94299 10.5181 6.50622 10.768L5.77844 12.157C5.25586 11.8484 5.17619 11.326 5.32012 11.0451ZM10.5041 14V19H14.4673V14H10.5041ZM16.4755 19H20.4918V14H16.4755V19Z" fill="#929DAA"/>
<path d="M12.4591 7C13.0137 7 13.4632 6.55228 13.4632 6C13.4632 5.44772 13.0137 5 12.4591 5C11.9046 5 11.455 5.44772 11.455 6C11.455 6.55228 11.9046 7 12.4591 7Z" fill="#929DAA"/>
</svg>
