<svg width="25" height="24" viewBox="0 0 25 24" fill="none" xmlns="http://www.w3.org/2000/svg">
<path fill-rule="evenodd" clip-rule="evenodd" d="M3.5001 4.5001C3.50011 2.58181 5.03528 1.00012 6.96158 1.00012H18.0385C19.9648 1.00012 21.5 2.58186 21.5 4.50019L21.4997 19.5002C21.4997 21.4185 19.9645 23.0001 18.0382 23.0001L6.96147 23.0001C5.03516 23.0001 3.49999 21.4184 3.5 19.5001L3.5001 4.5001ZM6.96158 3.00012C6.16901 3.00012 5.5001 3.657 5.5001 4.50012L5.5 19.5001C5.49999 20.3432 6.1689 21.0001 6.96148 21.0001L18.0382 21.0001C18.8308 21.0001 19.4997 20.3433 19.4997 19.5002L19.5 4.50015C19.5 3.65702 18.8311 3.00012 18.0385 3.00012H6.96158ZM7.80799 7.00012C7.80799 6.44784 8.2557 6.00012 8.80799 6.00012H16.1925C16.7447 6.00012 17.1925 6.44784 17.1925 7.00012C17.1925 7.55241 16.7447 8.00012 16.1925 8.00012H8.80799C8.2557 8.00012 7.80799 7.55241 7.80799 7.00012ZM7.80799 10.7501C7.80799 10.1978 8.2557 9.75013 8.80799 9.75013H16.1925C16.7447 9.75013 17.1925 10.1978 17.1925 10.7501C17.1925 11.3024 16.7447 11.7501 16.1925 11.7501H8.80799C8.2557 11.7501 7.80799 11.3024 7.80799 10.7501ZM7.80799 14.5001C7.80799 13.9478 8.2557 13.5001 8.80799 13.5001H12.5002C13.0525 13.5001 13.5002 13.9478 13.5002 14.5001C13.5002 15.0524 13.0525 15.5001 12.5002 15.5001H8.80799C8.2557 15.5001 7.80799 15.0524 7.80799 14.5001Z" fill="#929DAA"/>
</svg>
